<svg width="1400" height="900" viewBox="0 0 1400 900" xmlns="http://www.w3.org/2000/svg">
  <defs>
    <filter id="shadow3" x="-20%" y="-20%" width="140%" height="140%">
      <feDropShadow dx="0" dy="18" stdDeviation="26" flood-color="#7B5FEF" flood-opacity="0.18"/>
    </filter>
    <linearGradient id="pill3" x1="0" y1="0" x2="1" y2="0">
      <stop offset="0" stop-color="#7B5FEF"/>
      <stop offset="1" stop-color="#38D39F"/>
    </linearGradient>
  </defs>
  <rect width="1400" height="900" fill="#FFFFFF"/>
  <g opacity=".1">
    <circle cx="230" cy="200" r="160" fill="#FF7BC3"/>
    <circle cx="1210" cy="720" r="180" fill="#38D39F"/>
    <circle cx="700" cy="760" r="140" fill="#7B5FEF"/>
  </g>
  <g transform="translate(250,140)">
    <rect width="900" height="620" rx="28" fill="#FFFFFF" stroke="#E5E7EB" filter="url(#shadow3)"/>
    <g transform="translate(28,24)">
      <rect width="844" height="52" rx="12" fill="#F9FAFB" stroke="#E5E7EB"/>
      <rect x="18" y="12" width="180" height="28" rx="14" fill="url(#pill3)"/>
      <text x="108" y="30" font-family="Inter,system-ui" font-size="14" fill="#fff" text-anchor="middle">Generate Flashcards</text>
    </g>
    <g transform="translate(48,110)">
      <g>
        <rect width="360" height="180" rx="14" fill="#FFFFFF" stroke="#E5E7EB"/>
        <text x="18" y="36" font-family="Inter,system-ui" font-size="14" fill="#6B7280">Term</text>
        <text x="18" y="66" font-family="Inter,system-ui" font-size="18" fill="#111827" font-weight="700">Opportunity Recognition</text>
        <rect x="18" y="120" width="96" height="32" rx="8" fill="#EEF2FF" stroke="#E5E7EB"/>
        <text x="66" y="140" font-family="Inter,system-ui" font-size="14" fill="#7B5FEF" text-anchor="middle">Flip</text>
      </g>
      <g transform="translate(420,0)">
        <rect width="360" height="180" rx="14" fill="#FFFFFF" stroke="#E5E7EB"/>
        <text x="18" y="36" font-family="Inter,system-ui" font-size="14" fill="#6B7280">Question</text>
        <text x="18" y="66" font-family="Inter,system-ui" font-size="18" fill="#111827" font-weight="700">Define “product-market fit”.</text>
        <rect x="18" y="120" width="140" height="32" rx="8" fill="#EEF2FF" stroke="#E5E7EB"/>
        <text x="88" y="140" font-family="Inter,system-ui" font-size="14" fill="#7B5FEF" text-anchor="middle">Reveal</text>
      </g>
      <g transform="translate(0,220)">
        <rect width="360" height="180" rx="14" fill="#FFFFFF" stroke="#E5E7EB"/>
        <text x="18" y="36" font-family="Inter,system-ui" font-size="14" fill="#6B7280">Cloze</text>
        <text x="18" y="66" font-family="Inter,system-ui" font-size="18" fill="#111827" font-weight="700">Lean ____ canvas</text>
        <rect x="18" y="120" width="120" height="32" rx="8" fill="#EEF2FF" stroke="#E5E7EB"/>
        <text x="78" y="140" font-family="Inter,system-ui" font-size="14" fill="#7B5FEF" text-anchor="middle">Check</text>
      </g>
      <g transform="translate(420,220)">
        <rect width="360" height="180" rx="14" fill="#FFFFFF" stroke="#E5E7EB"/>
        <text x="18" y="36" font-family="Inter,system-ui" font-size="14" fill="#6B7280">Definition</text>
        <text x="18" y="66" font-family="Inter,system-ui" font-size="16" fill="#111827">MVP: the smallest testable version of a product that</text>
        <text x="18" y="88" font-family="Inter,system-ui" font-size="16" fill="#111827">delivers value to early customers and validates</text>
        <text x="18" y="110" font-family="Inter,system-ui" font-size="16" fill="#111827">assumptions.</text>
        <rect x="18" y="140" width="96" height="32" rx="8" fill="#EEF2FF" stroke="#E5E7EB"/>
        <text x="66" y="160" font-family="Inter,system-ui" font-size="14" fill="#7B5FEF" text-anchor="middle">Flip</text>
      </g>
    </g>
    <g transform="translate(28,540)">
      <rect width="844" height="44" rx="22" fill="#F9FAFB" stroke="#E5E7EB"/>
      <rect x="18" y="12" width="280" height="20" rx="10" fill="#7B5FEF"/>
      <rect x="18" y="12" width="520" height="20" rx="10" fill="#E5E7EB" opacity=".35"/>
      <text x="822" y="28" font-family="Inter,system-ui" font-size="12" fill="#6B7280" text-anchor="end">18 of 40</text>
    </g>
  </g>
</svg>