<svg xmlns="http://www.w3.org/2000/svg" width="1200" height="720" viewBox="0 0 1200 720">
    
<defs>
  <filter id="cardShadow" x="-50%" y="-50%" width="200%" height="200%">
    <feOffset dx="0" dy="14" in="SourceAlpha" result="off"/>
    <feGaussianBlur stdDeviation="22" in="off" result="blur"/>
    <feColorMatrix in="blur" type="matrix"
      values="0 0 0 0 0
              0 0 0 0 0
              0 0 0 0 0
              0 0 0 0.18 0" result="shadow"/>
    <feMerge>
      <feMergeNode in="shadow"/>
      <feMergeNode in="SourceGraphic"/>
    </feMerge>
  </filter>
</defs>

    
  <g filter="url(#cardShadow)">
    <rect x="120" y="80" width="960" height="560" rx="24" ry="24" fill="#FFFFFF" stroke="#E5E7EB"/>
    
      <g>
        <rect x="160" y="120" width="880" height="56" rx="12" ry="12" fill="#F8FAFC" stroke="#E5E7EB"/>
        <g transform="translate(174,136)">
          <circle cx="0" cy="12" r="6" fill="#F472B6"/>
          <circle cx="20" cy="12" r="6" fill="#22C55E"/>
          <circle cx="40" cy="12" r="6" fill="#7B5FEF"/>
        </g>
      </g>
    
    
      <g>
        <rect x="172" y="188" width="132" height="42" rx="10" ry="10" fill="transparent" stroke="#E5E7EB"/>
        <text x="238" y="215" text-anchor="middle" font-family="Inter, system-ui, -apple-system" font-size="16" fill="#344054">Files</text>
      </g>
    
    
      <g>
        <rect x="310" y="188" width="132" height="42" rx="10" ry="10" fill="transparent" stroke="#E5E7EB"/>
        <text x="376" y="215" text-anchor="middle" font-family="Inter, system-ui, -apple-system" font-size="16" fill="#344054">Flashcards</text>
      </g>
    
    
      <g>
        <rect x="470" y="188" width="132" height="42" rx="10" ry="10" fill="transparent" stroke="#E5E7EB"/>
        <text x="536" y="215" text-anchor="middle" font-family="Inter, system-ui, -apple-system" font-size="16" fill="#344054">Quizzes</text>
      </g>
    
    
      <g>
        <rect x="640" y="188" width="132" height="42" rx="10" ry="10" fill="#FFFFFF" stroke="#7B5FEF"/>
        <text x="706" y="215" text-anchor="middle" font-family="Inter, system-ui, -apple-system" font-size="16" fill="#7B5FEF">Chats</text>
      </g>
    
    <g>
      <rect x="160" y="236" width="880" height="360" rx="16" ry="16" fill="#F8FAFC" stroke="#E5E7EB"/>
      <!-- left list -->
      <g>
        <rect x="176" y="252" width="220" height="328" rx="12" ry="12" fill="#FFFFFF" stroke="#E5E7EB"/>
        <text x="190" y="280" font-family="Inter, system-ui, -apple-system" font-size="16" fill="#667085" font-weight="600" text-anchor="start">Topics</text>
        
      <g>
        <rect x="190" y="292" width="82" height="28" rx="14" ry="14" fill="#F8FAFC" stroke="#E5E7EB"/>
        <text x="231.0" y="310" text-anchor="middle" font-family="Inter, system-ui, -apple-system" font-size="14" fill="#344054">Biology</text>
      </g>
    
        
      <g>
        <rect x="190" y="326" width="98" height="28" rx="14" ry="14" fill="#F8FAFC" stroke="#E5E7EB"/>
        <text x="239.0" y="344" text-anchor="middle" font-family="Inter, system-ui, -apple-system" font-size="14" fill="#344054">Chemistry</text>
      </g>
    
        
      <g>
        <rect x="190" y="360" width="82" height="28" rx="14" ry="14" fill="#F8FAFC" stroke="#E5E7EB"/>
        <text x="231.0" y="378" text-anchor="middle" font-family="Inter, system-ui, -apple-system" font-size="14" fill="#344054">History</text>
      </g>
    
        
      <g>
        <rect x="190" y="394" width="98" height="28" rx="14" ry="14" fill="#F8FAFC" stroke="#E5E7EB"/>
        <text x="239.0" y="412" text-anchor="middle" font-family="Inter, system-ui, -apple-system" font-size="14" fill="#344054">Economics</text>
      </g>
    
      </g>
      <!-- chat area -->
      <g>
        <rect x="410" y="252" width="648" height="328" rx="12" ry="12" fill="#FFFFFF" stroke="#E5E7EB"/>
        <!-- assistant bubble -->
        <g>
          <rect x="430" y="272" width="588" height="120" rx="12" ry="12" fill="#F5F3FF" stroke="#7B5FEF"/>
          <text x="448" y="302" font-family="Inter, system-ui, -apple-system" font-size="16" fill="#344054" font-weight="normal" text-anchor="start">Mitosis is the process where a single cell divides to</text>
          <text x="448" y="326" font-family="Inter, system-ui, -apple-system" font-size="16" fill="#344054" font-weight="normal" text-anchor="start">produce two genetically identical daughter cells...</text>
        </g>
        <!-- user input -->
        <g>
          <rect x="430" y="440" width="588" height="56" rx="12" ry="12" fill="#F8FAFC" stroke="#E5E7EB"/>
          <text x="448" y="475" font-family="Inter, system-ui, -apple-system" font-size="16" fill="#667085" font-weight="normal" text-anchor="start">Type your question...</text>
          <rect x="990" y="440" width="128" height="56" rx="12" ry="12" fill="#7B5FEF" />
          <text x="1054" y="475" font-family="Inter, system-ui, -apple-system" font-size="16" fill="#FFFFFF" font-weight="normal" text-anchor="start">Send</text>
        </g>
      </g>
    </g>
  </g>

    </svg>