<svg width="1400" height="900" viewBox="0 0 1400 900" xmlns="http://www.w3.org/2000/svg">
  <defs>
    <filter id="shadow" x="-20%" y="-20%" width="140%" height="140%">
      <feDropShadow dx="0" dy="18" stdDeviation="26" flood-color="#7B5FEF" flood-opacity="0.18"/>
    </filter>
    <linearGradient id="pill" x1="0" y1="0" x2="1" y2="0">
      <stop offset="0" stop-color="#7B5FEF"/>
      <stop offset="1" stop-color="#FF7BC3"/>
    </linearGradient>
  </defs>
  <rect width="1400" height="900" fill="#FFFFFF"/>
  <g opacity=".12">
    <circle cx="1180" cy="180" r="180" fill="#7B5FEF"/>
    <circle cx="1240" cy="720" r="160" fill="#FF7BC3"/>
    <circle cx="220" cy="620" r="140" fill="#38D39F"/>
  </g>
  <g transform="translate(250,140)">
    <rect width="900" height="620" rx="28" fill="#FFFFFF" stroke="#E5E7EB" filter="url(#shadow)"/>
    <g transform="translate(28,24)">
      <rect width="844" height="52" rx="12" fill="#F9FAFB" stroke="#E5E7EB"/>
      <circle cx="20" cy="26" r="6" fill="#EF4444"/>
      <circle cx="42" cy="26" r="6" fill="#F59E0B"/>
      <circle cx="64" cy="26" r="6" fill="#10B981"/>
      <rect x="690" y="12" width="140" height="28" rx="14" fill="url(#pill)"/>
      <text x="736" y="31" font-family="Inter,system-ui,Segoe UI,Arial" font-size="14" fill="#FFFFFF" text-anchor="middle">Upload</text>
    </g>
    <g transform="translate(28,100)">
      <rect width="844" height="180" rx="16" fill="#FCFEFF" stroke="#E5E7EB" stroke-dasharray="8 10"/>
      <text x="422" y="86" font-family="Inter,system-ui" font-size="20" fill="#6B7280" text-anchor="middle">Drop study files here or click to choose</text>
      <g transform="translate(382,112)">
        <rect width="80" height="32" rx="16" fill="url(#pill)"/>
        <text x="40" y="22" font-family="Inter,system-ui" font-size="14" fill="#fff" text-anchor="middle">Browse</text>
      </g>
    </g>
    <g transform="translate(28,316)">
      <rect width="844" height="72" rx="12" fill="#FFFFFF" stroke="#E5E7EB"/>
      <circle cx="36" cy="36" r="16" fill="#EF4444"/><text x="31" y="42" font-family="Inter,system-ui" font-weight="700" font-size="12" fill="#fff">PDF</text>
      <text x="70" y="42" font-family="Inter,system-ui" font-size="16" fill="#111827" font-weight="600">chapt_03.pdf</text>
      <rect x="720" y="22" width="96" height="28" rx="14" fill="#F3F4F6" stroke="#E5E7EB"/>
      <text x="768" y="41" font-family="Inter,system-ui" font-size="13" fill="#6B7280" text-anchor="middle">Preview</text>
    </g>
    <g transform="translate(28,396)">
      <rect width="844" height="72" rx="12" fill="#FFFFFF" stroke="#E5E7EB"/>
      <circle cx="36" cy="36" r="16" fill="#F59E0B"/><text x="28" y="42" font-family="Inter,system-ui" font-weight="700" font-size="12" fill="#fff">PPT</text>
      <text x="70" y="42" font-family="Inter,system-ui" font-size="16" fill="#111827" font-weight="600">lecture_05.pptx</text>
      <rect x="720" y="22" width="96" height="28" rx="14" fill="#F3F4F6" stroke="#E5E7EB"/>
      <text x="768" y="41" font-family="Inter,system-ui" font-size="13" fill="#6B7280" text-anchor="middle">Preview</text>
    </g>
    <g transform="translate(28,476)">
      <rect width="844" height="72" rx="12" fill="#FFFFFF" stroke="#E5E7EB"/>
      <circle cx="36" cy="36" r="16" fill="#10B981"/><text x="29" y="42" font-family="Inter,system-ui" font-weight="700" font-size="12" fill="#fff">DOC</text>
      <text x="70" y="42" font-family="Inter,system-ui" font-size="16" fill="#111827" font-weight="600">notes.docx</text>
      <rect x="720" y="22" width="96" height="28" rx="14" fill="#F3F4F6" stroke="#E5E7EB"/>
      <text x="768" y="41" font-family="Inter,system-ui" font-size="13" fill="#6B7280" text-anchor="middle">Preview</text>
    </g>
  </g>
</svg>