<?xml version="1.0" encoding="UTF-8"?>
<svg xmlns="http://www.w3.org/2000/svg" width="1400" height="860" viewBox="0 0 1400 860">
  <!-- Transparent background -->
  <defs>
    <!-- soft shadow -->
    <filter id="cardShadow" x="-20%" y="-20%" width="140%" height="140%" color-interpolation-filters="sRGB">
      <feDropShadow dx="0" dy="24" stdDeviation="24" flood-color="#0F172A" flood-opacity="0.10"/>
    </filter>
    <filter id="chipShadow" x="-40%" y="-40%" width="180%" height="180%">
      <feDropShadow dx="0" dy="8" stdDeviation="8" flood-color="#0F172A" flood-opacity="0.10"/>
    </filter>
    <linearGradient id="purpleAccent" x1="0" y1="0" x2="1" y2="1">
      <stop offset="0%" stop-color="#7B5FEF"/>
      <stop offset="100%" stop-color="#A78BFA"/>
    </linearGradient>
  </defs>

  <!-- App card -->
  <g filter="url(#cardShadow)">
    <rect x="150" y="90" rx="20" ry="20" width="1100" height="680" fill="#ffffff" stroke="#EEF2F6"/>
  </g>

  <!-- top bar -->
  <g>
    <rect x="150" y="90" rx="20" ry="20" width="1100" height="70" fill="#ffffff"/>
    <text x="190" y="135" font-family="Inter, ui-sans-serif, system-ui" font-size="24" font-weight="700" fill="#111827">Notescape</text>

    <!-- tabs -->
    <g transform="translate(450,104)">
      <rect x="0" y="0" width="110" height="44" rx="10" fill="#F8FAFC" stroke="#E5E7EB"/>
      <text x="20" y="28" font-family="Inter, ui-sans-serif, system-ui" font-size="16" fill="#111827">Files</text>
    </g>
    <g transform="translate(570,104)">
      <rect x="0" y="0" width="140" height="44" rx="10" fill="#FFFFFF" stroke="#E5E7EB"/>
      <text x="16" y="28" font-family="Inter, ui-sans-serif, system-ui" font-size="16" fill="#111827">Flashcards</text>
    </g>
    <g transform="translate(730,104)">
      <rect x="0" y="0" width="120" height="44" rx="10" fill="#FFFFFF" stroke="#E5E7EB"/>
      <text x="16" y="28" font-family="Inter, ui-sans-serif, system-ui" font-size="16" fill="#111827">Quizzes</text>
    </g>
    <g transform="translate(860,104)">
      <rect x="0" y="0" width="110" height="44" rx="10" fill="#FFFFFF" stroke="#E5E7EB"/>
      <text x="16" y="28" font-family="Inter, ui-sans-serif, system-ui" font-size="16" fill="#111827">Chats</text>
    </g>

    <!-- user chip -->
    <g transform="translate(1100,104)" filter="url(#chipShadow)">
      <rect x="0" y="0" width="120" height="44" rx="22" fill="#FFFFFF" stroke="#E5E7EB"/>
      <circle cx="22" cy="22" r="12" fill="url(#purpleAccent)"/>
      <text x="42" y="28" font-family="Inter, ui-sans-serif, system-ui" font-size="16" fill="#111827">You</text>
    </g>
  </g>

  <!-- Title row -->
  <text x="190" y="190" font-family="Inter, ui-sans-serif, system-ui" font-size="26" font-weight="700" fill="#111827">Upload</text>
  <g transform="translate(270,168)">
    <rect x="0" y="-10" width="120" height="36" rx="8" fill="#F9FAFB" stroke="#E5E7EB"/>
    <text x="12" y="14" font-family="Inter, ui-sans-serif, system-ui" font-size="14" fill="#6B7280">Difficulty</text>
    <g transform="translate(92,-2)">
      <rect x="0" y="0" width="18" height="18" rx="4" fill="#ffffff" stroke="#E5E7EB"/>
      <path d="M6 6 L12 9 L6 12 Z" fill="#6B7280"/>
    </g>
  </g>

  <!-- Upload area (outlined) -->
  <g transform="translate(190,220)">
    <rect x="0" y="0" width="1070" height="160" rx="14" fill="#ffffff" stroke="#E5E7EB" stroke-dasharray="8 8"/>
    <g transform="translate(30,28)">
      <rect x="0" y="0" width="60" height="60" rx="12" fill="#F3F4F6" stroke="#E5E7EB"/>
      <path d="M30 18 v24 M18 30 h24" stroke="url(#purpleAccent)" stroke-width="2" stroke-linecap="round"/>
    </g>
    <text x="110" y="70" font-family="Inter, ui-sans-serif, system-ui" font-size="20" font-weight="700" fill="#111827">Drop files here or click to upload</text>
    <text x="110" y="100" font-family="Inter, ui-sans-serif, system-ui" font-size="14" fill="#6B7280">PDF, PPTX, DOCX — Multiple files supported</text>
  </g>

  <!-- Files list -->
  <g transform="translate(190,410)">
    <rect x="0" y="0" width="1070" height="40" rx="10" fill="#F8FAFC" stroke="#EEF2F6"/>
    <text x="18" y="26" font-family="Inter, ui-sans-serif, system-ui" font-size="15" font-weight="700" fill="#0F172A">Files</text>
  </g>

  <!-- Rows -->
  <g transform="translate(190,460)">
    <rect x="0" y="0" width="1070" height="64" rx="12" fill="#ffffff" stroke="#F2F4F7"/>
    <text x="18" y="40" font-family="Inter, ui-sans-serif, system-ui" font-size="16" font-weight="600" fill="#111827">barringer_ent6_chapt_05.pptx</text>
    <g transform="translate(330,22)">
      <rect x="0" y="0" width="46" height="22" rx="11" fill="#F3F4F6" stroke="#E5E7EB"/>
      <text x="10" y="16" font-family="Inter, ui-sans-serif, system-ui" font-size="12" fill="#374151">PPTX</text>
    </g>
    <g transform="translate(1010,18)">
      <rect x="0" y="0" width="36" height="28" rx="8" fill="#ffffff" stroke="#E5E7EB"/>
      <circle cx="18" cy="14" r="2" fill="#6B7280"/>
      <circle cx="24" cy="14" r="2" fill="#6B7280"/>
      <circle cx="12" cy="14" r="2" fill="#6B7280"/>
    </g>
  </g>

  <g transform="translate(190,532)">
    <rect x="0" y="0" width="1070" height="64" rx="12" fill="#ffffff" stroke="#F2F4F7"/>
    <text x="18" y="40" font-family="Inter, ui-sans-serif, system-ui" font-size="16" font-weight="600" fill="#111827">chapt_03.pdf</text>
    <g transform="translate(210,22)">
      <rect x="0" y="0" width="46" height="22" rx="11" fill="#F3F4F6" stroke="#E5E7EB"/>
      <text x="12" y="16" font-family="Inter, ui-sans-serif, system-ui" font-size="12" fill="#374151">PDF</text>
    </g>
    <g transform="translate(1010,18)">
      <rect x="0" y="0" width="36" height="28" rx="8" fill="#ffffff" stroke="#E5E7EB"/>
      <circle cx="18" cy="14" r="2" fill="#6B7280"/>
      <circle cx="24" cy="14" r="2" fill="#6B7280"/>
      <circle cx="12" cy="14" r="2" fill="#6B7280"/>
    </g>
  </g>

  <g transform="translate(190,604)">
    <rect x="0" y="0" width="1070" height="64" rx="12" fill="#ffffff" stroke="#F2F4F7"/>
    <text x="18" y="40" font-family="Inter, ui-sans-serif, system-ui" font-size="16" font-weight="600" fill="#111827">chapt_02.pdf</text>
    <g transform="translate(210,22)">
      <rect x="0" y="0" width="46" height="22" rx="11" fill="#F3F4F6" stroke="#E5E7EB"/>
      <text x="12" y="16" font-family="Inter, ui-sans-serif, system-ui" font-size="12" fill="#374151">PDF</text>
    </g>
    <g transform="translate(1010,18)">
      <rect x="0" y="0" width="36" height="28" rx="8" fill="#ffffff" stroke="#E5E7EB"/>
      <circle cx="18" cy="14" r="2" fill="#6B7280"/>
      <circle cx="24" cy="14" r="2" fill="#6B7280"/>
      <circle cx="12" cy="14" r="2" fill="#6B7280"/>
    </g>
  </g>

  <g transform="translate(190,676)">
    <rect x="0" y="0" width="1070" height="64" rx="12" fill="#ffffff" stroke="#F2F4F7"/>
    <text x="18" y="40" font-family="Inter, ui-sans-serif, system-ui" font-size="16" font-weight="600" fill="#111827">chapt_01.pdf</text>
    <g transform="translate(210,22)">
      <rect x="0" y="0" width="46" height="22" rx="11" fill="#F3F4F6" stroke="#E5E7EB"/>
      <text x="12" y="16" font-family="Inter, ui-sans-serif, system-ui" font-size="12" fill="#374151">PDF</text>
    </g>
    <g transform="translate(1010,18)">
      <rect x="0" y="0" width="36" height="28" rx="8" fill="#ffffff" stroke="#E5E7EB"/>
      <circle cx="18" cy="14" r="2" fill="#6B7280"/>
      <circle cx="24" cy="14" r="2" fill="#6B7280"/>
      <circle cx="12" cy="14" r="2" fill="#6B7280"/>
    </g>
  </g>
</svg>
